<svg width="80" height="35" viewBox="0 0 80 35" fill="none" xmlns="http://www.w3.org/2000/svg">
<g clip-path="url(#clip0_384_303)">
<path fill-rule="evenodd" clip-rule="evenodd" d="M58.424 12.6263V9.33042C58.424 9.05333 58.529 8.84479 58.771 8.70625L65.3963 4.89125C66.299 4.37063 67.3738 4.12854 68.4835 4.12854C72.6456 4.12854 75.2823 7.35437 75.2823 10.7873C75.2823 11.0308 75.2823 11.3079 75.2473 11.585L68.3785 7.56146C68.192 7.44272 67.9755 7.37965 67.7544 7.37965C67.5333 7.37965 67.3167 7.44272 67.1302 7.56146L58.424 12.6263ZM73.8954 25.4596V17.5875C73.8954 17.1019 73.6869 16.7563 73.2698 16.5127L64.5635 11.4479L67.4073 9.8175C67.5103 9.74969 67.631 9.71356 67.7544 9.71356C67.8777 9.71356 67.9984 9.74969 68.1015 9.8175L74.7267 13.634C76.6356 14.7423 77.919 17.1019 77.919 19.3915C77.919 22.0281 76.3585 24.4562 73.894 25.4625L73.8954 25.4596ZM56.3779 18.5252L53.5342 16.8598C53.2906 16.7213 53.1856 16.5127 53.1856 16.2356V8.60271C53.1856 4.89125 56.0294 2.08104 59.8808 2.08104C61.3392 2.08104 62.691 2.56667 63.8358 3.43438L57.0021 7.38938C56.5865 7.63146 56.3779 7.97854 56.3779 8.46417V18.5238V18.5252ZM62.5 22.0617L58.424 19.7721V14.9158L62.5 12.6263L66.576 14.9158V19.7721L62.5 22.0617ZM65.1192 32.6054C63.6608 32.6054 62.309 32.1213 61.1642 31.2535L67.9979 27.2985C68.4135 27.0565 68.6221 26.7094 68.6221 26.2238V16.1642L71.5008 17.8296C71.7444 17.9681 71.8479 18.1767 71.8479 18.4538V26.0852C71.8479 29.7967 68.9692 32.6054 65.1192 32.6054ZM56.8985 24.8719L50.2719 21.0554C48.3644 19.9456 47.081 17.5875 47.081 15.2979C47.0765 13.997 47.4604 12.7243 48.1834 11.6427C48.9064 10.5612 49.9357 9.72002 51.1396 9.22688V17.1354C51.1396 17.621 51.3481 17.9681 51.7638 18.2117L60.4365 23.2415L57.5927 24.8719C57.4897 24.9399 57.369 24.9761 57.2456 24.9761C57.1222 24.9761 57.0015 24.9399 56.8985 24.8719ZM56.5165 30.5594C52.5965 30.5594 49.7177 27.6121 49.7177 23.9692C49.7177 23.6921 49.7527 23.415 49.7863 23.1379L56.62 27.09C57.0371 27.3335 57.4527 27.3335 57.8683 27.09L66.5746 22.0617V25.3575C66.5746 25.6346 66.4725 25.8431 66.229 25.9817L59.6038 29.7967C58.701 30.3173 57.6263 30.5594 56.5165 30.5594ZM65.1192 34.6865C67.1179 34.6866 69.0553 33.9964 70.6038 32.7326C72.1522 31.4687 73.2166 29.7089 73.6169 27.7506C77.5019 26.7444 80 23.1 80 19.39C80 16.9619 78.9602 14.6037 77.0863 12.9033C77.2598 12.1742 77.3633 11.4465 77.3633 10.7188C77.3633 5.75896 73.3398 2.04604 68.6921 2.04604C67.7558 2.04604 66.8546 2.18458 65.9504 2.49813C64.3317 0.904763 62.1537 0.00812088 59.8823 9.36856e-09C57.8834 -9.28638e-05 55.9458 0.690325 54.3973 1.95445C52.8488 3.21857 51.7846 4.97878 51.3846 6.93729C47.4981 7.94354 45 11.5865 45 15.2979C45 17.7275 46.0398 20.0856 47.9138 21.7846C47.7402 22.5138 47.6367 23.2429 47.6367 23.9706C47.6367 28.9304 51.6602 32.6419 56.3079 32.6419C57.2442 32.6419 58.1454 32.5033 59.0496 32.1913C60.6685 33.7852 62.8472 34.6819 65.1192 34.6894V34.6865Z" fill="white" fill-opacity="0.5"/>
</g>
<g clip-path="url(#clip1_384_303)">
<path d="M6.86729 23.2677L13.7506 19.4075L13.8673 19.0721L13.7506 18.8854H13.4167L12.2646 18.8154L8.33 18.709L4.91896 18.5675L1.61438 18.3896L0.781667 18.2131L0 17.185L0.0802083 16.6717L0.780208 16.2035L1.78062 16.291L3.99729 16.4413L7.31938 16.6717L9.72854 16.8131L13.3 17.185H13.8673L13.9475 16.956L13.7521 16.8131L13.6019 16.6717L10.1631 14.3442L6.44146 11.8825L4.49313 10.465L3.43729 9.74896L2.90646 9.07521L2.67604 7.60521L3.63271 6.55229L4.9175 6.63979L5.24562 6.72875L6.54792 7.72917L9.33042 9.88167L12.9631 12.5548L13.4954 12.9981L13.7069 12.8479L13.7346 12.7415L13.4954 12.3419L11.5194 8.77479L9.41063 5.14354L8.47146 3.63854L8.22354 2.73583C8.12908 2.38912 8.07813 2.032 8.07187 1.67271L9.16271 0.195417L9.765 0L11.2175 0.195417L11.83 0.72625L12.7342 2.78833L14.1954 6.03896L16.4631 10.4577L17.1281 11.7673L17.4825 12.9806L17.6152 13.3525H17.8456V13.1396L18.0323 10.6517L18.3779 7.59646L18.7133 3.66625L18.83 2.55792L19.3783 1.23083L20.4677 0.513333L21.3194 0.921667L22.0194 1.92063L21.9217 2.56813L21.5046 5.2675L20.6894 9.50104L20.1585 12.3331H20.4677L20.8221 11.9802L22.2585 10.0756L24.6677 7.06562L25.7323 5.86979L26.9719 4.55146L27.7696 3.92292H29.276L30.3844 5.56938L29.8885 7.26979L28.3369 9.23417L27.0521 10.8996L25.2087 13.3788L24.0567 15.3621L24.1631 15.5225L24.4373 15.4933L28.6023 14.6096L30.8525 14.2013L33.5373 13.7419L34.7521 14.3077L34.8848 14.8838L34.4065 16.0606L31.535 16.7694L28.1677 17.4431L23.1525 18.6288L23.0913 18.6725L23.1627 18.7615L25.4217 18.9744L26.3871 19.0269H28.7525L33.1567 19.355L34.3087 20.1163L35 21.0467L34.8848 21.754L33.1129 22.6581L30.7213 22.0908L25.1373 20.7638L23.224 20.284H22.9585V20.4444L24.5525 22.0019L27.4779 24.6415L31.1369 28.0394L31.3221 28.8823L30.8525 29.5458L30.3567 29.4744L27.141 27.0579L25.9 25.9685L23.0913 23.606H22.9046V23.854L23.5521 24.8004L26.9719 29.9352L27.1498 31.5102L26.9019 32.025L26.0152 32.3356L25.041 32.1577L23.0373 29.3504L20.9738 26.1902L19.3069 23.3567L19.1027 23.4733L18.1198 34.0521L17.659 34.5917L16.5958 35L15.7106 34.3277L15.241 33.2383L15.7106 31.0858L16.2779 28.28L16.7373 26.0487L17.1544 23.2779L17.4023 22.3563L17.3848 22.295L17.1806 22.3213L15.0894 25.1898L11.9102 29.4846L9.39313 32.1752L8.78938 32.4144L7.74375 31.8748L7.84146 30.9094L8.42625 30.0504L11.9088 25.6229L14.0088 22.8783L15.365 21.2946L15.3563 21.0642H15.276L6.02583 27.0667L4.37792 27.2796L3.66771 26.6146L3.75667 25.5267L4.09354 25.1723L6.87604 23.259L6.86729 23.2677Z" fill="white" fill-opacity="0.5"/>
</g>
<defs>
<clipPath id="clip0_384_303">
<rect width="35" height="35" fill="white" transform="translate(45)"/>
</clipPath>
<clipPath id="clip1_384_303">
<rect width="35" height="35" fill="white"/>
</clipPath>
</defs>
</svg>
