<svg width="60" height="20" viewBox="0 0 60 20" fill="none" xmlns="http://www.w3.org/2000/svg">
<path d="M59.8936 4.82281C60.2014 4.05368 59.8274 3.18066 59.0583 2.87286C58.2892 2.56506 57.4162 2.93903 57.1084 3.70815L58.501 4.26548L59.8936 4.82281ZM40.9988 17.7661L40.6224 16.3141L40.9988 17.7661ZM1.19266 2.79737C0.381799 2.96706 -0.137975 3.76195 0.0317158 4.57282L2.79698 17.7866C2.96667 18.5974 3.76157 19.1172 4.57243 18.9475C5.38329 18.7778 5.90306 17.9829 5.73337 17.1721L3.27536 5.42651L15.0209 2.9685C15.8318 2.79881 16.3516 2.00391 16.1819 1.19305C16.0122 0.382187 15.2173 -0.137584 14.4064 0.0321059L1.19266 2.79737ZM58.501 4.26548C57.1084 3.70815 57.1086 3.70748 57.1089 3.70685C57.1089 3.70669 57.1092 3.70609 57.1093 3.70577C57.1096 3.70512 57.1098 3.70463 57.1099 3.70428C57.1102 3.70359 57.1102 3.70349 57.11 3.70398C57.1096 3.70496 57.1083 3.70828 57.1059 3.71389C57.1012 3.72511 57.0926 3.74547 57.0798 3.77446C57.0543 3.83247 57.0123 3.92496 56.9527 4.04799C56.8335 4.29414 56.6437 4.6619 56.3732 5.11984C55.8318 6.03633 54.9697 7.30932 53.7057 8.69067C51.1849 11.4456 47.0532 14.6468 40.6224 16.3141L40.9988 17.7661L41.3753 19.218C48.4443 17.3853 53.0637 13.8363 55.919 10.7159C57.3431 9.15957 58.3253 7.71367 58.9562 6.64568C59.2718 6.11137 59.5002 5.67049 59.6525 5.35607C59.7287 5.19881 59.786 5.07303 59.8257 4.98283C59.8455 4.93772 59.861 4.90149 59.8723 4.87466C59.8779 4.86124 59.8825 4.85017 59.886 4.84151C59.8878 4.83717 59.8893 4.83344 59.8906 4.83033C59.8912 4.82877 59.8918 4.82736 59.8923 4.82611C59.8925 4.82548 59.8929 4.82465 59.893 4.82434C59.8933 4.82355 59.8936 4.82281 58.501 4.26548ZM40.9988 17.7661L40.6224 16.3141C37.6086 17.0954 33.7443 16.7574 29.5012 15.6793C25.2896 14.6093 20.8674 12.8532 16.8201 10.9685C12.7791 9.0867 9.14884 7.09406 6.5269 5.57031C5.217 4.80904 4.16136 4.16632 3.43497 3.71506C3.07183 3.48947 2.79115 3.31184 2.60229 3.19128C2.50787 3.13101 2.43642 3.08501 2.38911 3.05444C2.36546 3.03915 2.34785 3.02772 2.33642 3.02029C2.3307 3.01657 2.32653 3.01385 2.32392 3.01216C2.32262 3.01131 2.32171 3.01071 2.3212 3.01037C2.32094 3.01021 2.32084 3.01015 2.32071 3.01006C2.32072 3.01007 2.32082 3.01013 1.49991 4.26556C0.679003 5.52099 0.679303 5.52119 0.679706 5.52145C0.679972 5.52163 0.680473 5.52196 0.681008 5.5223C0.682071 5.523 0.683531 5.52395 0.685384 5.52516C0.689091 5.52758 0.694369 5.53101 0.701202 5.53546C0.714867 5.54434 0.734748 5.55724 0.760698 5.57401C0.812602 5.60756 0.888793 5.6566 0.988088 5.71998C1.18667 5.84675 1.47774 6.03094 1.85188 6.26337C2.60005 6.72815 3.68106 7.38625 5.0195 8.16409C7.69425 9.71855 11.4075 11.7573 15.5537 13.6881C19.6937 15.616 24.3025 17.4538 28.7625 18.587C33.1911 19.7122 37.6392 20.1867 41.3753 19.218L40.9988 17.7661Z" fill="#0D6EFD"/>
</svg>
